<svg width="158" height="199" viewBox="0 0 158 199" fill="none" xmlns="http://www.w3.org/2000/svg">
<g clip-path="url(#clip0_87_10)">
<path d="M72 0.75H86.25L97.75 1.75L107.25 3.25L117.25 5.5L125.75 7.75L133.5 10.25L141.25 13.25L147.25 16L149 17.25L149.25 24.5L150 25.25L156.25 27.75L158 29V110L157.5 116.25L156.5 123.25L154.75 130.25L152.5 136.25L149.75 141.5L146.75 145.5L144.5 148L142.75 150L137.5 155.25L134.75 157.5L131.25 160.5L128.25 162.75L123.5 166.25L119.5 169.25L115 172.5L110.75 175.5L106.25 178.75L101.5 182.25L97.25 185.25L88.75 191.5L85.5 194L81.5 197L79.75 198.25L78.5 197.5L75.25 195.25L70.5 191.75L66.25 188.75L61.25 185L56.75 181.75L53.5 179.25L49 176L45 173L40.25 169.5L35.25 165.75L31 162.75L26.5 159.5L23.25 156.75L21.25 155L19.75 153.75L16.75 150.75L15 148.75L12.5 146L9.5 142L7.5 138.75L5.5 134.5L3.5 128.5L2.25 123L1.5 118.25L0.75 108.5L0.25 93.5L0 83.5V53.75L0.5 29L4.5 27L9 25.25L9.5 24.75L9.75 22V17L13.75 15L18 13L24.5 10.5L30.5 8.5L40 5.75L50 3.5L57.25 2.25L65.5 1.25L72 0.75Z" fill="#064077"/>
<path d="M13.25 28.25H13.75L14 40.75V86.25L14.25 113.25L14.75 122.25L15.5 128.5L17 135.25L19.25 141.5L21.25 145.5L23.5 148.75L25.5 151.25L28.5 154.5V155H29L30.25 156.75L30 157.25L29.25 156.75V156.25L28 155.75L24.75 152.75L22.75 151L19.75 148.25L16.5 144.75L13.25 140.5L11.25 137.25L9 132.5L7.25 127L6.25 122.75L5.25 115L5 112L4.75 105.5V32.25L5.25 31.25L10.25 29.5L13.25 28.25Z" fill="#A5CA59"/>
<path d="M145 28.5L146.5 28.75L152 30.75L154 31.5L154.25 35.25V103.25L153.5 114L152.5 121.25L151 128L149.25 133.25L147.25 137.5L144.75 141.5L142 144.75L139.25 147.75L137 150.25L134 153L132 154.75L129 157V156.25L131.75 153.25L133.5 151.25L136 148L138.5 143.75L140.25 140L141.75 135.75L143.25 128.5L144.25 120.25L144.75 106.75L145 28.5Z" fill="#A5CA59"/>
<path d="M82.25 46.25L83.5 46.5L84.75 49.25V50L76.25 50.75L68.75 51.5L61.25 52.75L56 54L51.75 55.5L48.75 57L46.25 59.25L45.25 61.25L45 62.25V65L45.75 67.5L47.75 71L49.75 73.5L52.25 76.5H61L69 77.25L69.25 78.5L69 78.75L68.5 93.75L67 94.25L61.5 94L61.75 94.75L62.75 106V110.75L62.25 111L54 111.75H51.5L51.25 111.5V90.5L49 91L46 91.75H44L43.25 91V79L45.5 77.25L46.25 77L51 76.75L48.5 74.25L45.75 70.5L43.75 66.25L43.5 65.25V61L45.25 57.5L47.5 55.25L51.75 52.75L57 50.75L63.5 49L72.25 47.5L82.25 46.25Z" fill="#FDFEFE"/>
<path d="M80.5 81.5H86.25L89.5 82.25L91.5 83.75L93 85.5L93.75 87.25V90.75L92.75 93.25L91.25 95.5L88.25 99L85.75 102.25L85.5 103L89.25 102L93.5 101.5L93.75 102L93.5 110H88.25L88 110.5L87.75 109.75L86.5 110L82.25 109.75L81.75 109.5H79.5L78.5 109.75H76.75L76.5 109.5L76.75 107.75L78.25 104.75L80.75 101.75L82.25 99.5L84.5 97L85.75 95L86 94V91.25H81.5L79.25 92.25L77.75 94.5L76.5 93.5L74.75 91.5V91L73.75 90.5L73.25 87.75L74 86.5L75 84.75L76.5 82.75L78 82L80.5 81.5Z" fill="#FDFEFE"/>
<path d="M82.25 46.25L83.5 46.5L84.75 49.25V50L76.25 50.75L68.75 51.5L61.25 52.75L56 54L51.75 55.5L48.75 57L46.25 59.25L45.25 61.25L45 62.25V65L45.75 67.5L47.75 71L49.75 73.5L52.25 76.5H61L69 77.25L69.25 78.5L69 78.75L68.5 93.75L67 94.25L61.5 94L61.75 94.75L62.75 106V110.75L62.25 111L54 111.75H51.5L51.25 111.5V90.5L49 91L46 91.75H44L43.25 91V79L45.5 77.25L46.25 77L51 76.75L48.5 74.25L45.75 70.5L43.75 66.25L43.5 65.25V61L45.25 57.5L47.5 55.25L51.75 52.75L57 50.75L63.5 49L72.25 47.5L82.25 46.25ZM50.75 78.25L50 78.75L46.75 79.5V80L45.5 80.25L45.25 80.5V89.75L49.75 89.25L53.5 88.75L53.25 89.25L52.75 99.5L52 100H52.75V108L53.75 108.75H52.75V110L59 109.5L61 109.25V106L60.25 95.75L59.75 95.25L60 94.75L59.5 93.5V92.5L66.5 92.25L66.75 92L67.25 84.75V79L64 78.75L62.25 82.25L61.75 82.5L63.5 79L63.25 78.5L59.75 78.25H55L52.5 78.75H51.5L51.75 78.25H50.75Z" fill="#FDFEFE"/>
<path d="M101 23L104.5 23.25L108.75 24.5L110 25.25L110.5 26V28.5L109.75 29.25L107.25 30L110.25 29.5L110.5 30.5L111.5 31L113.75 33.5L115 35.25L115.5 36L116.75 35L118 35.25L118.5 36.5L119 40.5L118.75 44.25L117.5 48L116 50.75L114.5 52.75L112.5 54.75L108.75 57.25L107.5 57.5L107.75 56.25H108.25L108.75 55.25L110.25 53.5L112.25 51.75H112.75L113.25 50.75L114.75 49.25H115.25L114.25 45.25L113.5 43.25L114 41.25L113.25 43L110.25 43.75L107 44.25L105.25 41.75L103.5 39.75L102.25 38.75L102 37.5L103.25 32.25L104 31L102.75 30.75L97.75 28.25L97.5 28V26L98 24.25L98.75 23.5L101 23Z" fill="#FDFEFE"/>
<path d="M102.75 80.25L109.5 80.5L112.25 80.75L113 81L112.75 88.75L113 89.25L112.75 91.75H112.25L112.5 93V99.25L112.25 107.5L110.5 107.75L107.5 108H104V100.75L105.75 89.75L106.25 87.75L103.75 88H100.25L100.75 85.5L102 81.25L102.75 80.25Z" fill="#FDFEFE"/>
<path d="M97.25 27.25L98.5 28.5L102 30L103.25 30.75L104.25 31L103.5 32.25L102.25 37.5L102.5 38.75L104.5 40.5L106.25 42.75L107 44L113.25 43L114 40.5L114.5 39.75L114.25 41.5L113.75 43.5L115 46.75L115.25 49.25L113.25 51L112 52.25L109.5 54.5L105.5 52.5L103.75 51.75L100.5 52.5L99.75 52.25L104 51L105 49.5L106.5 44.5L105 42L102.75 39.5L101.25 38.75H99.5L95.75 39.25L94.5 39.5L94 40.75L92.25 44.75L91.75 45.75V43.75L92.5 42.75L93.75 40L93.5 38.25L92.5 36.75L91.5 33.75L90.25 33.5L90.75 33L92 32.25L94.25 30L96.75 28.25L97.25 27.25Z" fill="#064077"/>
<path d="M92.5 23.5L93.25 23.75L89.75 26L87.25 28.25L76.5 30.5L69.75 32.5L62.75 35L57.75 37.25L52.5 40L48.25 43L47 44L45.75 45.25L43.75 47.75L42 50.5L40.25 54.5L39.5 58.75V61L40.25 65L42.25 69.25L45.25 73.25L47 75L47.75 75.5V76.25L46.5 75.75L42.5 71.75L40.75 69L39.25 66L38.25 62.5V56.75L39.25 52.75L41.25 48.5L43.25 45.5L46 42.5L49 39.75L53 37L56.75 34.75L61.5 32.5L67.75 30L75.25 27.5L84.75 25L89 24L92.5 23.5Z" fill="#F3FEFE"/>
<path d="M99.5 38.5H101.25L103 39.5L105.5 42.25L106.75 44.75L105 50L104 51.25L100.25 52.25L97.25 52.5L96 52L94 49.75L92 47L91.75 45.75L92.75 43L94.5 39.5L95.75 39L99.5 38.5Z" fill="#FDFEFE"/>
<path d="M60 121.25H61.5L63.25 123L65.75 127L67.25 129.5L67.5 121.25H70.75L71 121.5V133.25L70.5 134.5L69 135.5H67.25L66 134.25L63.5 130.5L61.5 127.25H61.25V135.25L61 135.5H58L57.75 135.25V123.75L58.25 122.25L60 121.25Z" fill="#FCFEFE"/>
<path d="M82.75 54.75H87.5L89 55.25L91.5 57L93.75 58.25V59L88.25 58.75L84 58.5H67.5L59.5 59.25L53.5 60.5L50.5 61.75L48.25 63.25L47 66L46.5 66.25L46.25 64.75L47 62.5L48.75 60.5L51.25 59L54.25 57.75L59 56.5L66 55.5L71.75 55L82.75 54.75Z" fill="#FCFEFE"/>
<path d="M114.5 121.25H124.5L125.5 121.75L125.75 122.5V130.5L124.5 131L125 132.5L126.75 135.25V135.5H122.5L120.75 133L119.75 131.5L118.25 131V135.25L117.75 135.5H114.75L114.5 135.25V126.25L115 125.25L117.75 125.5L118.25 127V127.75L121 127.5H122L122.25 125H114.75L114.5 124.75V121.25Z" fill="#F3FFFF"/>
<path d="M32.25 121.25H42.5L43.5 122.25V130.5L42.25 131L42.5 132.25L43.75 133.75L44.25 135L45 135.5H40.5L39 133.5L37.75 131.5L36.25 131.25L36 135.25L35.5 135.5H32.5L32.25 135.25V125.75L32.5 125.5H35.75L36 127.75L38.25 127.5H39.75V125H32.5L32.25 124.75V121.25Z" fill="#FCFEFE"/>
<path d="M91.75 121.25H101L102.25 121.75L102.5 122.25L102.75 125V128.75L102.5 130.75L101.75 131.25H95V135.25L94.75 135.5H91.5L91.25 121.5L91.75 121.25Z" fill="#FDFEFE"/>
<path d="M53.25 77.25H60L67.75 77.75L68.5 78L68.25 80.5L68 93L67.75 93.25H61.5L61 93L61.75 100.5L62 103.75V110.25L61 110.5L54.25 111H51.75V93L52 89.75L45.25 91H43.75L44 88.75V79.5L45 79L45.5 82.75V87L45.25 89.75L51.75 88.75H53.5L53 99.5L52.75 100L53 101V108L54 108.5L53.75 109H53L52.75 110L53.75 109.75L59 109.25H61L60 95.75L59.25 95.25L59.75 94.75L59.25 93.5L59.5 92.25L66.5 92L67 84.75L67.25 79H64L62.75 82L61.75 82.5L62 81.25L63 79.5V78.75L59.75 78.5H54L53.25 77.25Z" fill="#064077"/>
<path d="M109.5 121.25H111.25L112.5 122L113.25 123V129.25H110L109 128.75L109.25 127.75L108 129.75H113.25L113.5 131.5V135.25L113.25 135.5H109.75L109.5 135L109.75 133.25L105.5 133.5L104.5 135.25L104 135.5H100.25V134.75L102.5 131.25L105.5 126.5L108 122.75L109 121.5L109.5 121.25Z" fill="#FCFEFE"/>
<path d="M27.5 121.25H29L30.5 122L31 123.75V129.25H27.5L27 129L27.5 127.5L26.5 128.5L26 129.75H30.75L31 130V135.5H27.75L27.5 135.25V133.25L23 133.75L22.25 135.25L22 135.5L18.25 135.75L18 135L19.75 132L22.25 128.25L24.75 124.25L26.75 121.75L27.5 121.25Z" fill="#FDFEFE"/>
<path d="M81.25 121.25L83.25 121.5L84.75 122.75L85 123.75V129L84.75 129.25H82L81 129L81.25 127.75L80.25 128.75L79.75 129.75H84.75L85 130V135.25L84.75 135.5H81.75L81.5 135.25L81.25 133.5H78L76.75 134.25L76 135.5H72L72.25 134.5L75 130L77.25 126.5L79.75 122.75L81 121.5L81.25 121.25Z" fill="#FCFEFE"/>
<path d="M84.25 31H85L84.75 32.25L83.5 34.75L81.5 35.25L73 36.75L66.75 38.25L58 41L53 43.25L50.25 44.75L47.75 46.75L45 49.25L43 52L41.25 55L41 54.25L42.25 51.25L44.25 48.5L46.25 46.25H46.75V45.75L48.75 44L51.5 42L56 39.5L60.5 37.5L69.5 34.5L82.5 31.25L84.25 31Z" fill="#FCFEFE"/>
<path d="M46.75 69.75L49.75 73.5L52.25 76.5H61L69 77.25L69.25 78.5L69 78.75L68.5 93.75L67 94.25L61.5 94L61.75 94.75L62.75 106V110.75L62.25 111L54 111.75H51.5L51.25 111.5V90.5L49 91L46 91.75H44L43.25 91V79L45.5 77.25L46.25 77L51 76.75L48.5 74.25L46.25 71.25V70L46.75 69.75ZM53.25 77.25L54 78.75H51.5L51.75 78.25L50.25 78.5L48.75 79L46.75 79.5V80L45.5 80.25L45.25 80.5L45 79L44 79.5V88.75L43.75 91L46.25 90.75L52 89.75L51.75 93V111H54.25L61 110.5L62 110.25V103.75L61.25 94.75L61 93L62.25 93.25H67.75L68 93L68.25 80.5L68.5 78L67.75 77.75L60 77.25H53.25Z" fill="#F3FFFF"/>
<path d="M102.5 78.75L108.75 79L113.75 79.75L114.75 80L114.25 83L113.75 89H113.25V91.25L113.75 91.75V104L114 108.75L113.25 109H110.5L105 109.25L102.75 109V102.25L103.25 99.25L104.5 90L104.75 89H98.75L98.5 88.5L99.75 84.25L101.25 80.25L102 79L102.5 78.75ZM102.75 80.25L102 81.25L100.25 87.25V88H103.75L106.25 87.75L105.5 91L104 100.75V108H107.5L111 107.75L112.25 107.5L112.5 96.5V93L112.25 91.75L112.75 91.5L113 89L112.75 88.5L113 81L112.25 80.75L105.25 80.25H102.75Z" fill="#064077"/>
<path d="M89.75 33.5H91.5L92.5 36L93.5 38L94 38.75L93.75 40.5L92.25 43.5L92 43.75L91.5 46.25L91 46.75L90 47H87L85.5 44.75L84.25 41.75V40L85.5 36L86.75 34L87.25 33.75L89.75 33.5Z" fill="#FCFEFE"/>
<path d="M45.25 121.25H54L55.75 123.5L56.25 124.75L49 125L48.75 132H56L56.25 132.5L55 134.25L54.25 135.5H45.25V121.25Z" fill="#FCFEFE"/>
<path d="M82 37.25H82.75V40.25L82.5 40.5L75.75 41.25L67.5 42.75L60.5 44.5L55 46.5L51 48.5L47.5 50.5L44.75 52.75L43.75 54L41.5 57.75L40.5 58.75L40.75 56L41.5 55.25L43.25 52.5L45 50.75L48.25 48.25L51.5 46.25L56.75 43.75L65.75 40.75L72.25 39L78.75 37.75L82 37.25Z" fill="#F3FFFF"/>
<path d="M116.75 35L118 35.25L118.5 36.5L119 40.5L118.75 44.25L117.5 48L116 50.75L114.5 52.75L112.5 54.75L108.75 57.25L107.5 57.5L107.75 56.25H108.25L108.75 55.25L110.25 53.5L112.25 51.75H112.75L113.25 50.75L114.75 49.25H115.25L114.25 45.25L113.5 43.25L114 41.25L113.75 40.25L114.75 36.5L115.25 36L116.75 35Z" fill="#FCFEFE"/>
<path d="M102 78H106L111.25 78.5L115.25 79.25L115.5 79.5L115.25 81.75L115 83L114.5 90.75V91.5V103.25L114.75 109L114.5 109.25L109.25 109.75H102L102.25 102.75L102.5 99L103.5 93.25L103.75 92.75L104.25 89.75L98.5 90L98 89.75L98.25 87.75L100 81.25L101 78.75L102 78ZM102.5 78.75L101.5 79.75L100.25 82.75L98.5 88.5L98.75 89H104.75L104 93.75L103 101.5L102.75 103.75V109L105.75 109.25L110.5 109H113.75L114 108.25L113.75 104V91.5L113.25 91.25V89H113.75L114.25 83L114.75 80L111 79.25L108.75 79L102.5 78.75Z" fill="#F2FEFE"/>
<path d="M103.75 51.5L105.5 52.25L108.75 54V55L107 57L105.5 58L103.5 58.5H99.5L97 57.75L95.5 56.75L95 56.25L95.25 55L95.75 54.75L96.5 52.75L102 52L103.75 51.5Z" fill="#FCFEFE"/>
<path d="M72 0.75H86.25L97.75 1.75L107.25 3.25L117.25 5.5L125.75 7.75L133.5 10.25L141.25 13.25L147.25 16L149 17.25L148.75 18L147.5 16.75L143 14.75L135 11.5L126.75 8.75L119.75 6.75L109.75 4.5L106.25 3.75L96 2.25L89.25 1.75H70.75L65.25 2L57 3L49.75 4.25L40 6.5L34 8.25L27 10.25L19.5 13L18.75 12.75L22.5 11.25L27.5 9.5L34.75 7.25L41.25 5.5L48.75 3.75L57.25 2.25L65.5 1.25L72 0.75Z" fill="#F3FEFE"/>
<path d="M149 24.5L150.5 25.5L156.25 27.75L158 29V110L157.25 109V85.5L157 29.25L155 28L149.25 25.75L149 24.5Z" fill="#F2FEFE"/>
<path d="M82.75 26.25H86.25L86.5 26.75L85.75 27.5L83.75 28.5H81.75L78.5 29.25L77 30L73.25 31L64.25 33.75L61.75 35L58.75 36.25L57 37L55.25 38H53L52.5 39L50.5 39.5L50.75 38.5L53.5 36.75L54.75 36.5L57.5 35H58L58.25 34.5L60.25 33.5L63.25 32.25L69.25 30L71 29.25L73.75 28.5L75 28L78.25 27.5L82.75 26.25Z" fill="#FDFEFE"/>
<path d="M134.5 121.25H138.25L138 122.5L136.25 125L135.25 126.75V128L139 134L139.5 134.5V135.5H135.75L135 134.75L131.75 129.25L131.5 128.25V126L132.75 123.5L134 121.5L134.5 121.25Z" fill="#F3FFFF"/>
<path d="M95.5 24H97.5L97.25 27.25L96.75 28.5L94 30.5L91.5 33L88.5 33.5L86.5 33.75L86.25 33.5L86.5 31.75L88 29.25L90 27.25L92.5 25.5L95.5 24Z" fill="#FCFEFE"/>
<path d="M127.25 121.25H130.75L131 121.5V135.5H127.5L127.25 134.5V121.25Z" fill="#FEFEFE"/>
<path d="M115 125.75L117.75 126L118 128H121L121.5 128.25L122.25 131.25L124 133L124.75 133.5L124.5 135.25H122.25L120 131.75L118.25 131V135.25L117.75 135.5H114.75V126.75L115 125.75Z" fill="#FDFEFE"/>
<path d="M80.75 79.5H86.75L90 80.25L93.25 82.5L94.75 84.5L95.75 87.25V90L95.25 92.25L92.75 96.5L90.75 99.25L95.5 99.5L95.75 100.75L95.5 111.5L95.25 111.75H89.25V111H94.5L94.75 100.5H91V100.75H89L89.25 99.75H89.75L90.25 98.25L92.75 95L94.5 91.5L94.75 90.5V86.75L93 83.5L90.75 81.75L88.25 80.75L87 80.5H81.5L78.25 81.25L75.5 82.75L73.75 84.75L72.5 86.75L72 88.25H71.75V86.25L72.75 84.25L75 82L77.75 80.25L80.75 79.5Z" fill="#F2FEFE"/>
<path d="M91.75 121.25H101L102.25 121.75L102 122.25H98.5V121.75L93 122L91.5 122.25L91.75 124.75L94.25 124.5L94.75 124L98.25 123.25L100 124L100.25 124.75L100 125.25H100.5V127L99.75 127.75L99.25 128H94.75L94.5 126.25L91.75 125.75V132.5H91.5L91.25 121.5L91.75 121.25Z" fill="#F3FEFE"/>
<path d="M58.75 43H61.25L61.5 43.75L60.5 44V44.5L55 46.5L51 48.5L47.5 50.5L44.75 52.75L43.75 54L41.5 57.75L40.5 58.75L40.75 56L41.5 55.25L43.25 52.5L45 50.75L48.25 48.25L51.5 46.25L56.75 43.75L58.75 43Z" fill="#F3FEFE"/>
<path d="M114.75 121.5H123.5L125 121.75L125.5 123V124.5L124.25 126L123.25 125L120.75 124.5L120 124.75H114.75V121.5Z" fill="#FEFEFE"/>
<path d="M84.25 31H85L84.75 32.25L83.5 34.75L81.5 35.25L73 36.75L66.75 38.25L61.75 39.75L61 39.5L64.75 38.25L66.5 37.75L68.25 37.5L68.5 37L72.5 36.25L75.5 35.5L76.25 35L79.5 34.5H82.5V32.5L80.25 33.25L72.25 34.5L66.5 36.25H65V36.75L61.75 37.75L57.75 39.25L57 39L62 37L69.5 34.5L82.5 31.25L84.25 31Z" fill="#F3FFFF"/>
<path d="M0.25 43.5H0.5L0.75 45.25V81.25L1 101.25L1.25 108V112.75H1L0.5 102.5L0 83.5V53.75L0.25 43.5Z" fill="#F3FFFF"/>
<path d="M46.75 69.75L49.75 73.5L52.25 76.5L54 77L53.5 77.5L54 78V78.75L51.75 79L50.75 78.5L50 79L46.75 79.75L45.75 79.5L45.25 77.5L46.25 77L51 76.75L48.5 74.25L46.25 71.25V70L46.75 69.75Z" fill="#F5FEFE"/>
<path d="M99 85.75L99.25 86.75L98.75 88.75L104.75 89L104.25 93.75L103.25 101.5L103 103.75L102.75 109H105.75L110.5 108.75H113.25L113.5 109.25L112.75 109.5L109.25 109.75H102L102.25 102.75L102.5 99L103.5 93.25L103.75 92.75L104.25 89.75L98.5 90L98 89.75L98.25 87.75L99 85.75Z" fill="#F3FFFF"/>
<path d="M53.75 76.5H61L69 77.25L69.25 78.5L69 78.75L68.5 93.75L67 94.25H65V93.75H61.75V93.5L66 93.25L67.75 93L68 80.5L68.5 78L62.75 77.75L60 77.5L54 77.25L53.5 76.75L53.75 76.5Z" fill="#DEEEF3"/>
<path d="M48.25 54.75L48.75 55V55.75L50 56L48.75 57L46.25 59.25L45.25 61.25L45 62.25V65L45.75 67.5L46.75 69.25L46.5 70.75L45.75 70.5L43.75 66.25L43.5 65.25V61L45.25 57.5L47.5 55.25L48.25 54.75Z" fill="#FAFEFE"/>
<path d="M62 56H63.75V56.25L57.25 57.5L55 58.25L55.5 59.25L56.75 59L58 59.25V59.5L52.75 60.75L48.75 62.75L47.75 64.25L47 66L46.5 66.25L46.25 64.75L47 62.5L48.75 60.5L51.25 59L54.25 57.75L59 56.5L62 56Z" fill="#F3FEFE"/>
<path d="M133.75 128.75L135 129L135.75 130V130.5L136.75 131L137.75 132L139.5 134.5V135.5H135.75L135 134.75L134.25 133.5L133.5 131.5L133.25 131V129.25L133.75 128.75Z" fill="#FDFEFE"/>
<path d="M115.25 48L115.75 49V49.5L116.75 49L115.25 52L112.5 54.75L108.75 57.25L107.5 57.5L107.75 56.25H108.25L108.75 55.25L110.25 53.5L112.25 51.75H112.75L113.25 50.75L114.75 49.25H115.25V48Z" fill="#FBFEFE"/>
<path d="M78.75 38.75H80.5L80 39.75L79.5 40L76 40.5L70 41.5H67V42L65.25 42.75L63 43.5L62.25 43.25L62 42.5L64.75 41.5L66.25 41L68.5 40.5L70.25 40L72.75 39.5L74.75 39H77.75L78.75 38.75Z" fill="#FEFEFE"/>
<path d="M82 92H84.75L85 92.25V94.25L83.25 97L81 99.5L79 102L76.5 105.5L75.5 108L75 109.75V110.75L76.25 111.25V111.5L74 111.25L74.25 109.5L75.5 105L77.75 102L81 98L82.75 96.25L84 94.25L84.5 92.5L83.75 92.75H81.75L81.5 92.25L82 92Z" fill="#F3FEFE"/>
<path d="M82.25 46.25L83.5 46.5L84.75 49.25V50L76.25 50.75L70.75 51V50.75L77.25 50L82.25 49.75L83 49.25V47.5L82.75 47.25L77.5 47.5L69.75 48.5L67.75 49L64 49.5L62.5 50L58.75 50.75L57.25 51.25L56.25 51L61.5 49.5L67.5 48.25L75.75 47L82.25 46.25Z" fill="#F3FFFF"/>
<path d="M39.5 56L39.75 57L39.5 58.75V61L40.25 65L42.25 69.25L45.25 73.25L47 75L47.75 75.5V76.25L46.5 75.75L42.5 71.75L40.75 69L39.25 66L38.75 63.75L39 63L38.75 60.5V58L39.5 56Z" fill="#F3FFFF"/>
<path d="M110 125L110.75 125.5L110.5 126.75L110 129L109 128.75L109.25 127.75L108 129.75H113.25V130L105.5 130.25L104.75 130.75H103.5L102.75 131.25L103.25 130L105.5 126.5L106 127L105.75 128V129.25L107 128.75H107.75L108.25 127.25L109.5 125.25L110 125Z" fill="#F3FEFE"/>
<path d="M127.25 121.25H130.75L131 121.5V135.5H127.5L127.25 134.5V121.25ZM127.5 121.5V124L127.75 124.5V135H130.75V121.5H127.5Z" fill="#F3FFFF"/>
<path d="M53.5 126.25L54 126.5L53.5 128L52.25 130L51.75 130.25H49.75L49.5 130V126.5L53.5 126.25Z" fill="#FBFEFE"/>
<path d="M97.25 124.75H98.75L99 125V127.75H95L94.75 125.25L94.25 125.5H91.75V125L97.25 124.75Z" fill="#064077"/>
<path d="M53.75 76.5H61L69 77.25L69.25 78.5L68.5 78.75V78L62.75 77.75L60 77.5L54 77.25L53.5 76.75L53.75 76.5Z" fill="#F3FEFE"/>
<path d="M102.25 122.25H102.5L102.75 125V128.75L102.5 130.75L101.75 131.25H95V135.25H94.75V131L102 130.75L101.25 128.25L101.5 124.75L102.25 124.5V122.25Z" fill="#F3FFFF"/>
<path d="M49.75 59.75H51L51.25 60.5L50.5 61.75L48.25 63.25L47 66L46.5 66.25L46.25 64.75L47 62.5L48.75 60.5L49.75 59.75Z" fill="#FAFEFE"/>
<path d="M47.25 77.75H52.75L53 78.5L51.5 79L51.25 78.5L48.75 79.25L46 79.75L45.5 79L45.75 78L47.25 77.75Z" fill="#074177"/>
<path d="M48.25 54.75L48.75 55V55.75L50 56L48.75 57L46.25 59.25L45.75 59.5V58.25H45.25V58.75H44.75L45.25 57.5L47.5 55.25L48.25 54.75Z" fill="#F3FEFE"/>
<path d="M84 43.25H84.5L87 47.75L87.5 49.75V51L86.75 50.75L85 47.25L84 44.5V43.25Z" fill="#F3FFFF"/>
<path d="M134.75 121.5H136.5L136.75 122H136.25L136 123.75L134.25 125H133.75L133.25 122.75L134.25 121.75L134.75 121.5Z" fill="#FDFEFE"/>
<path d="M46.25 46.25H46.75L46.25 47.25L45.25 48.25L45 49.25L43 52L41.25 55L41 54.25L42.25 51.25L44.25 48.5L46.25 46.25Z" fill="#F3FFFF"/>
<path d="M112.5 83.75H112.75V88.75L113 89.25L112.75 91.75H112.25V93H112L111.5 91.5L111.25 90.5V88.75L110.75 88.25H112.5L112.25 87.75V85.25L112.5 83.75Z" fill="#F3FEFE"/>
<path d="M137.75 132.5L138.75 133.5L139.5 134.5V135.5H135.75L135 134.75L134.75 133.75H135.25V134.25H137.25L138 134L137.75 132.5Z" fill="#F3FFFF"/>
<path d="M105 133.25L105.5 133.5L104.5 135.25L104 135.5H100.25V134.75L101.25 133.75L103 134.5L104.5 133.75H105V133.25Z" fill="#F3FFFF"/>
<path d="M19.5 132.5L20 133L19.75 134.75V135H21.5L21.75 134H22.5V133.5L23 133.75L22.25 135.25L22 135.5L18.25 135.75L18 135L19.5 132.5Z" fill="#F3FFFF"/>
<path d="M83.5 108.5L85 108.75L85.5 109.25L90.75 109.5V109.75L88.25 110L88 110.5L87.75 109.75L86.5 110L82.25 109.75L81.75 109.5L79.5 109.25V109L83 108.75L83.5 108.5Z" fill="#F3FEFE"/>
<path d="M114.5 121.25H124.5L125.5 121.75L125.75 122.5V124.5H125.5L125 122.75L124.75 122L123.5 121.75L114.75 121.5V124.75H114.5V121.25Z" fill="#F3FFFF"/>
<path d="M89.5 27.75L90 28.25L89.25 29.5L87.75 30.5L87 32V33L91.5 32.75L90.75 33.25L86.5 33.75L86.25 33.5L86.5 31.75L88 29.25L89.5 27.75Z" fill="#F3FFFF"/>
<path d="M109.5 28.75L110.25 29L106.75 30H108.25L107.5 30.5L104.75 31.25L103.75 31.75V31L102.75 30.5L108.25 29L109.5 28.75Z" fill="#F3FFFF"/>
<path d="M132 152.75H133.25V153.75L129.75 156.5L128.75 157L129.25 156L131.75 153.25L132 152.75Z" fill="#F1FEFC"/>
<path d="M74.25 82.75L74.75 83L72.5 86.75L72 88.25H71.75V86.25L72.75 84.25L74.25 82.75Z" fill="#F6FEFE"/>
<path d="M9.75 22H10L10.25 25.25L8.25 26.25L3.75 28L3 27.75L5.75 26.5L9 25.25L9.5 24.75L9.75 22Z" fill="#F3FFFF"/>
<path d="M38.75 55.75L39.5 56L39 58V60.5L39.25 63.5L39 64.25V63.75H38.5V57.25L38.75 55.75Z" fill="#FDFEFE"/>
<path d="M47.5 41.5L49 41.75L48 43.25L46.25 44L45.75 43.75L46.25 42.75L47.5 41.5Z" fill="#FCFEFE"/>
<path d="M115.75 35.75L116.25 36L115.5 38.25L114.75 39.75H114.25L114 41.25L113.75 40.25L114.75 36.5L115.25 36L115.75 35.75Z" fill="#C2D8E3"/>
<path d="M124 128L125.5 129V130.5H124.25L123.5 129.75L123.75 128.25L124 128Z" fill="#FEFEFE"/>
<path d="M80.5 81.5H86.25L87.75 81.75V82H81.5L79.75 82.5L78 82.25V82L80.5 81.5Z" fill="#F3FEFE"/>
<path d="M92 57.5L93.5 58L93.75 59L88.25 58.75V58.5H91.5L92 57.5Z" fill="#F3FFFF"/>
<path d="M102.75 80.25L109.5 80.5V80.75L104 81L102 81.75L102.5 80.5L102.75 80.25Z" fill="#F3FEFE"/>
<path d="M63.5 51.75H65.25V52L58.75 53.25L57 53.75L56 53.5L56.75 53L63.5 51.75Z" fill="#F3FFFF"/>
<path d="M46.75 63L48 63.25L47.25 65.75L46.5 66.25L46.25 64.75L46.75 63Z" fill="#F3FEFE"/>
<path d="M30.75 123.75H31V129.25H27.5L27 129L27.5 128L28 128.75L30.75 129V123.75Z" fill="#F3FFFF"/>
<path d="M80.5 92.25L81.25 92.5L80.25 93.75L79 95L78 95.75L78.5 94.25L80 92.5L80.5 92.25Z" fill="#F3FFFF"/>
<path d="M42.5 47H43.75L43.25 48.5L42.25 50L41.5 49.75L42.5 47Z" fill="#FBFEFE"/>
<path d="M82 110L82.75 110.25V111.5L84 111.25L84.25 110H84.75V111.5L85.25 111.75H81.75L82 110Z" fill="#F3FFFF"/>
<path d="M75 94L76 94.5L77.75 96.5L77.5 97L76.5 96.75L75 94.5V94Z" fill="#F3FFFF"/>
<path d="M104 103L105.75 103.25L105.25 104.25L104.25 104.5V107.75H104V103Z" fill="#DCECF2"/>
<path d="M115.25 48L115.75 49V49.5L116.75 49L116.25 50L115.75 50.75L115.5 50L114.5 50.25L112.75 51.75L113.25 50.75L114.75 49.25H115.25V48Z" fill="#F4FEFE"/>
<path d="M65.25 79H67.25V84.75H67L66.75 79.75L65.25 79.25V79Z" fill="#F3FFFF"/>
<path d="M60 43H61.25L61.5 43.75L59.5 44.5L59.25 43.5L60 43Z" fill="#FEFEFE"/>
<path d="M76 81.25H76.5L76.75 82L74.75 83.5L74.25 83.75L74.75 82.25L76 81.25Z" fill="#F3FFFF"/>
<path d="M52.75 108.75L54.5 109.25L57 109.5V109.75L52.75 110V108.75Z" fill="#F3FEFE"/>
<path d="M115 38.75L115.25 39.25L114.75 41.75L114.25 42.5L114 44L113.5 43.25L114.75 39L115 38.75Z" fill="#F3FFFF"/>
<path d="M105 133.25L105.5 133.5L104.5 135.25L103.5 135.5L102.75 135L104.25 134L105 133.75V133.25Z" fill="#F5FEFE"/>
<path d="M50.75 78.25L51.75 78.5L51.5 79.75L50.75 81.5L50.5 80.5L51 79.25L50 78.75L50.75 78.25Z" fill="#BBD2DF"/>
<path d="M48.5 72.75L49.5 73.25L50.25 74.25V74.75L49.25 75L48.75 73.5L48.5 72.75Z" fill="#F9FEFE"/>
<path d="M109.5 28.75L110.25 29L106.75 30H106V30.5H105.25L105.5 29.75L109.5 28.75Z" fill="#DAEBF0"/>
<path d="M72.5 88H72.75L73 90.25L73.25 91L72.25 90.5L72 88.5L72.5 88Z" fill="#F3FFFF"/>
<path d="M48.25 77H51L50.75 77.75H48L48.25 77Z" fill="#F3FFFF"/>
<path d="M93.25 41.5L93.5 42L92.25 44.75L91.75 45.75V43.75L92.5 42.75L93.25 41.5Z" fill="#386894"/>
<path d="M94.75 24.25L95.5 24.5L92.5 26.25L91.75 26L94.75 24.25Z" fill="#F3FEFE"/>
</g>
<defs>
<clipPath id="clip0_87_10">
<rect width="158" height="199" fill="white"/>
</clipPath>
</defs>
</svg>
